<?xml version="1.0" encoding="UTF-8" standalone="no"?>
<!DOCTYPE svg PUBLIC "-//W3C//DTD SVG 1.1//EN" "http://www.w3.org/Graphics/SVG/1.1/DTD/svg11.dtd">
<svg width="100%" height="100%" viewBox="0 0 361 549" version="1.1" xmlns="http://www.w3.org/2000/svg" xmlns:xlink="http://www.w3.org/1999/xlink" xml:space="preserve" xmlns:serif="http://www.serif.com/" style="fill-rule:evenodd;clip-rule:evenodd;stroke-linejoin:round;stroke-miterlimit:2;">
    <g transform="matrix(1,0,0,1,-273.424,-55.034)">
        <g transform="matrix(0.1,0,0,0.1,69.4292,-366.8)">
            <path d="M5525,4234C5492,4242 4631,4351 4517,4389C4243,4480 4038,4626 3906,4824C3808,4972 3760,5140 3734,5429C3724,5533 3719,5621 3722,5623C3728,5629 3851,5505 3877,5468C3900,5436 4180,5178 4292,5086C4473,4938 5093.6,4583.38 5164,4557C5129.99,4583.73 4804,4807 4655,4928C4485,5065 4186,5381 4038,5580C3996,5635 3870,5819 3870,5824C3870,5826 4002,5828 4163,5828C4566,5828 4730,5801 4922,5701C5188,5564 5649.8,4218.34 5649.8,4218.34C5649.8,4218.34 5558,4226 5525,4234Z" style="fill:rgb(0,181,161);fill-rule:nonzero;"/>
        </g>
        <g transform="matrix(0.1,0,0,0.1,69.4292,-443)">
            <path d="M2061,5074C2053,5084 2049,5182 2048,5405C2047,5703 2048,5724 2065,5737C2080,5747 2150,5750 2390,5750C2650,5750 2699,5748 2718,5734C2740,5719 2740,5718 2740,5400C2740,5095 2739,5080 2721,5070C2709,5064 2585,5060 2387,5060C2131,5060 2070,5063 2061,5074Z" style="fill:rgb(37,57,73);fill-rule:nonzero;"/>
        </g>
        <g transform="matrix(0.1,0,0,0.1,69.4292,-443)">
            <path d="M2916,5076C2902,5089 2900,5133 2900,5405L2900,5720L2924,5735C2944,5749 2990,5750 3257,5748C3502,5746 3570,5742 3583,5731C3598,5719 3600,5683 3600,5404C3600,5133 3598,5089 3584,5076C3571,5062 3526,5060 3250,5060C2974,5060 2929,5062 2916,5076Z" style="fill:rgb(37,57,73);fill-rule:nonzero;"/>
        </g>
        <g transform="matrix(0.1,0,0,0.1,69.4292,-275.3)">
            <path d="M2074,4233C2062,4237 2051,4247 2048,4255C2046,4262 2044,4406 2045,4575C2046,4813 2049,4885 2059,4897C2071,4911 2112,4913 2394,4913C2631,4913 2719,4910 2728,4901C2737,4892 2740,4804 2740,4566C2740,4258 2739,4243 2721,4233C2697,4221 2105,4220 2074,4233Z" style="fill:rgb(37,57,73);fill-rule:nonzero;"/>
        </g>
        <g transform="matrix(0.1,0,0,0.1,69.4292,-275)">
            <path d="M2940,4227C2902,4241 2900,4255 2900,4571C2900,4837 2902,4881 2916,4894C2929,4908 2974,4910 3250,4910C3526,4910 3571,4908 3584,4894C3598,4881 3600,4837 3600,4565C3600,4252 3600,4251 3578,4236C3559,4222 3512,4220 3255,4221C3090,4221 2948,4224 2940,4227Z" style="fill:rgb(37,57,73);fill-rule:nonzero;"/>
        </g>
        <g transform="matrix(0.1,0,0,0.1,69.4292,-105)">
            <path d="M2058,3389C2047,3404 2045,3472 2047,3722C2049,4004 2051,4036 2067,4047C2080,4057 2160,4060 2390,4060C2650,4060 2699,4058 2718,4044C2740,4029 2740,4028 2740,3711C2740,3478 2737,3391 2728,3382C2719,3373 2631,3370 2394,3370C2087,3370 2070,3371 2058,3389Z" style="fill:rgb(37,57,73);fill-rule:nonzero;"/>
        </g>
        <g transform="matrix(0.1,0,0,0.1,69.4292,-105)">
            <path d="M2916,3386C2902,3399 2900,3443 2900,3715C2900,4028 2900,4029 2922,4044C2941,4058 2990,4060 3252,4060C3547,4060 3561,4059 3580,4040C3599,4021 3600,4007 3600,3711C3600,3443 3598,3399 3584,3386C3571,3372 3526,3370 3250,3370C2974,3370 2929,3372 2916,3386Z" style="fill:rgb(37,57,73);fill-rule:nonzero;"/>
        </g>
        <g transform="matrix(0.1,0,0,0.1,69.4292,-105)">
            <path d="M3766,3389C3750,3406 3749,3437 3751,3715C3753,4000 3754,4024 3772,4042C3789,4059 3812,4060 4098,4060C4360,4060 4409,4058 4428,4044C4450,4029 4450,4028 4450,3711C4450,3478 4447,3391 4438,3382C4429,3373 4341,3370 4105,3370C3802,3370 3782,3371 3766,3389Z" style="fill:rgb(37,57,73);fill-rule:nonzero;"/>
        </g>
        <g transform="matrix(0.1,0,0,0.1,69.4292,-106)">
            <path d="M4629,3397C4618,3410 4614,3478 4613,3721C4610,3989 4612,4031 4626,4044C4639,4058 4683,4060 4955,4060C5227,4060 5271,4058 5284,4044C5298,4031 5300,3987 5300,3720C5300,3453 5298,3409 5284,3396C5271,3382 5227,3380 4956,3380C4677,3380 4641,3382 4629,3397Z" style="fill:rgb(37,57,73);fill-rule:nonzero;"/>
        </g>
        <g transform="matrix(0.1,0,0,0.1,69.4292,63)">
            <path d="M2060,2550C2041,2569 2040,2582 2041,2876C2043,3161 2044,3184 2061,3201C2079,3219 2101,3220 2391,3220C2586,3220 2709,3216 2721,3210C2739,3200 2740,3185 2740,2880C2740,2604 2738,2559 2724,2546C2711,2532 2667,2530 2394,2530C2093,2530 2079,2531 2060,2550Z" style="fill:rgb(37,57,73);fill-rule:nonzero;"/>
        </g>
        <g transform="matrix(0.1,0,0,0.1,69.4292,63.8)">
            <path d="M2922,2538C2900,2553 2900,2554 2900,2867C2900,3139 2902,3183 2916,3196C2939,3220 3544,3220 3578,3196C3600,3181 3600,3180 3600,2871C3600,2575 3599,2561 3580,2542C3561,2523 3547,2522 3252,2522C2990,2522 2941,2524 2922,2538Z" style="fill:rgb(37,57,73);fill-rule:nonzero;"/>
        </g>
        <g transform="matrix(0.1,0,0,0.1,69.4292,63)">
            <path d="M3770,2550C3751,2569 3750,2583 3750,2873C3750,3131 3752,3179 3766,3198C3781,3220 3782,3220 4096,3220C4294,3220 4418,3216 4431,3210C4449,3200 4450,3185 4450,2875C4450,2565 4449,2550 4431,2540C4419,2534 4296,2530 4101,2530C3803,2530 3789,2531 3770,2550Z" style="fill:rgb(37,57,73);fill-rule:nonzero;"/>
        </g>
        <g transform="matrix(0.1,0,0,0.1,69.4292,63)">
            <path d="M4626,2546C4612,2559 4610,2603 4610,2875C4610,3147 4612,3191 4626,3204C4639,3218 4684,3220 4960,3220C5278,3220 5279,3220 5294,3198C5308,3179 5310,3131 5310,2873C5310,2583 5309,2569 5290,2550C5271,2531 5257,2530 4956,2530C4683,2530 4639,2532 4626,2546Z" style="fill:rgb(37,57,73);fill-rule:nonzero;"/>
        </g>
        <g transform="matrix(1,0,0,1,69.4292,0)">
            <path d="M377.4,109.31C391.479,89.326 412.003,73.95 438.667,63.412C432.983,63.153 423.569,63 411.327,63C385.727,63 379.627,63.3 378.727,64.4C377.927,65.4 377.527,75.2 377.427,97.5C377.412,102.05 377.401,105.955 377.4,109.31Z" style="fill:rgb(37,57,73);fill-rule:nonzero;"/>
        </g>
        <g transform="matrix(18.349,0,0,18.349,-805.187,-8358.41)">
            <text x="57.812px" y="486.026px" style="font-family:'SFPro-Heavy', 'SF Pro';font-size:12px;fill:rgb(0,181,161);">NBI</text>
        </g>
        <g transform="matrix(2.21296,0,0,2.21296,206.6,-302.015)">
            <text x="29.111px" y="409.071px" style="font-family:'SFPro-Light', 'SF Pro';font-size:12px;fill:rgb(37,57,73);">New Bat<tspan x="71.41px " y="409.071px ">c</tspan>h Int<tspan x="98.808px " y="409.071px ">e</tspan>rf<tspan x="111.945px " y="409.071px ">a</tspan>ce</text>
            <text x="132.587px" y="409.071px" style="font-family:'SFPro-LightItalic', 'SF Pro';font-style:italic;font-size:12px;fill:rgb(0,181,161);">f<tspan x="135.956px " y="409.071px ">o</tspan>r</text>
            <text x="148.929px" y="409.071px" style="font-family:'SFPro-Light', 'SF Pro';font-size:12px;fill:rgb(37,57,73);">Slurm</text>
        </g>
        <g transform="matrix(1,0,0,1,69.4292,0)">
            <path d="M529.949,166.064C518.948,188.262 507.325,206.685 497.343,211.826C494.378,213.37 491.474,214.755 488.548,215.994C490.683,215.998 492.995,216 495.5,216C522.7,216 527.1,215.8 528.4,214.4C529.8,213.1 530,208.7 530,182C530,175.434 529.988,170.217 529.949,166.064Z" style="fill:rgb(37,57,73);fill-rule:nonzero;"/>
        </g>
    </g>
</svg>
